<svg xmlns="http://www.w3.org/2000/svg" xmlns:xlink="http://www.w3.org/1999/xlink" zoomAndPan="magnify" preserveAspectRatio="xMidYMid meet" version="1.0" viewBox="-3 132.89 380.75 109.21"><defs><g/><clipPath id="9bf038ab49"><path d="M 0.00390625 135.894531 L 375 135.894531 L 375 239.394531 L 0.00390625 239.394531 Z M 0.00390625 135.894531 " clip-rule="nonzero"/></clipPath><clipPath id="4b8dec8929"><path d="M 5.253906 135.894531 L 369.5 135.894531 C 370.890625 135.894531 372.226562 136.445312 373.210938 137.429688 C 374.195312 138.417969 374.75 139.75 374.75 141.144531 L 374.75 233.851562 C 374.75 235.242188 374.195312 236.578125 373.210938 237.5625 C 372.226562 238.546875 370.890625 239.101562 369.5 239.101562 L 5.253906 239.101562 C 3.863281 239.101562 2.527344 238.546875 1.542969 237.5625 C 0.558594 236.578125 0.00390625 235.242188 0.00390625 233.851562 L 0.00390625 141.144531 C 0.00390625 139.75 0.558594 138.417969 1.542969 137.429688 C 2.527344 136.445312 3.863281 135.894531 5.253906 135.894531 Z M 5.253906 135.894531 " clip-rule="nonzero"/></clipPath><clipPath id="fd21f612ca"><path d="M 10.125 145.59375 L 187.378906 145.59375 L 187.378906 229.40625 L 10.125 229.40625 Z M 10.125 145.59375 " clip-rule="nonzero"/></clipPath><clipPath id="990057e5e2"><path d="M 0.125 0.59375 L 177.378906 0.59375 L 177.378906 84.40625 L 0.125 84.40625 Z M 0.125 0.59375 " clip-rule="nonzero"/></clipPath><clipPath id="92898d9db3"><rect x="0" width="178" y="0" height="85"/></clipPath><clipPath id="9f36187d50"><rect x="0" width="121" y="0" height="100"/></clipPath><clipPath id="14e8ec2af8"><rect x="0" width="151" y="0" height="111"/></clipPath></defs><g clip-path="url(#9bf038ab49)"><g clip-path="url(#4b8dec8929)"><path stroke-linecap="butt" transform="matrix(0.75, 0, 0, 0.75, 0.00572604, 135.893955)" fill="none" stroke-linejoin="miter" d="M 6.997574 0.000768232 L 492.659064 0.000768232 C 494.513231 0.000768232 496.294481 0.735143 497.606981 2.047643 C 498.919481 3.365352 499.659065 5.141394 499.659065 7.000769 L 499.659065 130.610152 C 499.659065 132.464319 498.919481 134.245569 497.606981 135.558069 C 496.294481 136.870569 494.513231 137.610152 492.659064 137.610152 L 6.997574 137.610152 C 5.143407 137.610152 3.362157 136.870569 2.049657 135.558069 C 0.737157 134.245569 -0.00242639 132.464319 -0.00242639 130.610152 L -0.00242639 7.000769 C -0.00242639 5.141394 0.737157 3.365352 2.049657 2.047643 C 3.362157 0.735143 5.143407 0.000768232 6.997574 0.000768232 Z M 6.997574 0.000768232 " stroke="#8c38fe" stroke-width="6" stroke-opacity="1" stroke-miterlimit="4"/></g></g><g clip-path="url(#fd21f612ca)"><g transform="matrix(1, 0, 0, 1, 10, 145)"><g clip-path="url(#92898d9db3)"><g clip-path="url(#990057e5e2)"><path fill="#8c38fe" d="M 0.125 0.59375 L 177.246094 0.59375 L 177.246094 84.40625 L 0.125 84.40625 Z M 0.125 0.59375 " fill-opacity="1" fill-rule="nonzero"/></g></g></g></g><g transform="matrix(1, 0, 0, 1, 40, 138)"><g clip-path="url(#9f36187d50)"><g fill="#ffffff" fill-opacity="1"><g transform="translate(3.960537, 66.796318)"><g><path d="M 2.515625 -26.59375 L 14.28125 -29.859375 L 14.28125 -3.9375 C 14.28125 -2.113281 14.007812 -0.367188 13.46875 1.296875 C 12.644531 3.578125 11.300781 5.296875 9.4375 6.453125 C 7.570312 7.609375 5.535156 8.109375 3.328125 7.953125 C 1.128906 7.804688 -0.867188 6.925781 -2.671875 5.3125 C -1.960938 5.3125 -1.203125 5.101562 -0.390625 4.6875 C 0.410156 4.269531 1.09375 3.578125 1.65625 2.609375 C 2.226562 1.648438 2.515625 0.359375 2.515625 -1.265625 Z M 2.515625 -26.59375 "/></g></g></g><g fill="#ffffff" fill-opacity="1"><g transform="translate(18.246508, 66.796318)"><g><path d="M 59.90625 -22.21875 C 60.957031 -21.164062 61.757812 -19.789062 62.3125 -18.09375 C 62.863281 -16.394531 62.816406 -14.820312 62.171875 -13.375 C 61.609375 -12.175781 60.832031 -10.882812 59.84375 -9.5 L 52.171875 0 L 25.328125 0 C 22.492188 0 19.988281 -0.445312 17.8125 -1.34375 C 15.644531 -2.25 13.789062 -3.445312 12.25 -4.9375 C 10.707031 -6.425781 9.46875 -8.082031 8.53125 -9.90625 C 7.601562 -11.726562 6.972656 -13.578125 6.640625 -15.453125 C 6.640625 -15.453125 6.640625 -15.101562 6.640625 -14.40625 C 6.640625 -13.71875 6.753906 -12.800781 6.984375 -11.65625 C 7.210938 -10.507812 7.648438 -9.25 8.296875 -7.875 C 8.953125 -6.507812 9.921875 -5.113281 11.203125 -3.6875 C 10.109375 -2.695312 8.878906 -1.898438 7.515625 -1.296875 C 5.691406 -0.429688 3.722656 0 1.609375 0 L -1.796875 -9.46875 L -1.03125 -9.46875 C 0.601562 -9.46875 2 -10.050781 3.15625 -11.21875 C 4.320312 -12.382812 4.90625 -13.785156 4.90625 -15.421875 L 4.90625 -20.421875 L 15.921875 -26.53125 L 15.921875 -15.734375 C 15.941406 -15.628906 15.953125 -15.535156 15.953125 -15.453125 C 16.140625 -16.429688 16.453125 -17.476562 16.890625 -18.59375 C 17.335938 -19.707031 17.976562 -20.757812 18.8125 -21.75 C 19.65625 -22.75 20.738281 -23.5625 22.0625 -24.1875 C 23.394531 -24.820312 25.0625 -25.140625 27.0625 -25.140625 L 51.828125 -25.140625 C 55.203125 -25.140625 57.894531 -24.164062 59.90625 -22.21875 Z M 51.125 -9.5 C 52.988281 -9.5 54.351562 -9.71875 55.21875 -10.15625 C 56.082031 -10.601562 56.515625 -11.160156 56.515625 -11.828125 C 56.515625 -13.253906 54.71875 -14.019531 51.125 -14.125 L 21.203125 -14.125 C 20.046875 -14.125 19.117188 -14.015625 18.421875 -13.796875 C 17.722656 -13.578125 17.160156 -13.320312 16.734375 -13.03125 C 17.347656 -11.957031 18.175781 -11.097656 19.21875 -10.453125 C 20.269531 -9.816406 21.4375 -9.5 22.71875 -9.5 Z M 51.125 -9.5 "/></g></g></g><g fill="#ffffff" fill-opacity="1"><g transform="translate(79.166419, 66.796318)"><g><path d="M 33.984375 -26.234375 C 37.191406 -23.210938 38.796875 -19.523438 38.796875 -15.171875 C 38.796875 -10.535156 37.109375 -6.6875 33.734375 -3.625 C 30.328125 -0.539062 26.097656 1 21.046875 1 C 16.742188 1 13.082031 -0.179688 10.0625 -2.546875 C 9.25 -1.984375 8.359375 -1.5 7.390625 -1.09375 C 7.367188 -1.09375 7.347656 -1.09375 7.328125 -1.09375 C 5.503906 -0.363281 3.617188 0 1.671875 0 L -1.734375 -9.46875 L 4.96875 -9.46875 C 4.425781 -11.039062 4.15625 -12.726562 4.15625 -14.53125 C 4.15625 -19.125 5.84375 -22.984375 9.21875 -26.109375 C 12.613281 -29.210938 16.84375 -30.765625 21.90625 -30.765625 C 26.726562 -30.765625 30.753906 -29.253906 33.984375 -26.234375 Z M 21.484375 -5.4375 C 23.316406 -5.4375 24.703125 -6.179688 25.640625 -7.671875 C 26.566406 -9.160156 27.03125 -11.363281 27.03125 -14.28125 C 27.03125 -17.507812 26.546875 -20.015625 25.578125 -21.796875 C 24.609375 -23.566406 23.222656 -24.453125 21.421875 -24.453125 C 19.617188 -24.453125 18.238281 -23.707031 17.28125 -22.21875 C 16.332031 -20.75 15.859375 -18.585938 15.859375 -15.734375 C 15.859375 -12.460938 16.351562 -9.9375 17.34375 -8.15625 C 18.320312 -6.34375 19.703125 -5.4375 21.484375 -5.4375 Z M 21.484375 -5.4375 "/></g></g></g></g></g><g transform="matrix(1, 0, 0, 1, 204, 132)"><g clip-path="url(#14e8ec2af8)"><g fill="#8c38fe" fill-opacity="1"><g transform="translate(5.050665, 74.102503)"><g><path d="M 2.796875 -29.53125 L 15.859375 -33.15625 L 15.859375 -4.375 C 15.859375 -2.34375 15.554688 -0.40625 14.953125 1.4375 C 14.046875 3.96875 12.554688 5.875 10.484375 7.15625 C 8.410156 8.4375 6.148438 8.992188 3.703125 8.828125 C 1.253906 8.671875 -0.96875 7.695312 -2.96875 5.90625 C -2.175781 5.90625 -1.332031 5.671875 -0.4375 5.203125 C 0.457031 4.734375 1.21875 3.960938 1.84375 2.890625 C 2.476562 1.828125 2.796875 0.398438 2.796875 -1.390625 Z M 2.796875 -29.53125 "/></g></g></g><g fill="#8c38fe" fill-opacity="1"><g transform="translate(20.914046, 74.102503)"><g><path d="M 64.5 0 L 39.234375 0 L 35.921875 -9.265625 C 32.492188 -6.273438 28.671875 -3.984375 24.453125 -2.390625 C 20.242188 -0.796875 15.867188 0 11.328125 0 L 1.78125 0 L -1.984375 -10.515625 L 7.65625 -10.515625 C 10.914062 -10.515625 14.140625 -10.566406 17.328125 -10.671875 C 20.523438 -10.773438 23.539062 -11.109375 26.375 -11.671875 C 29.21875 -12.234375 31.75 -13.15625 33.96875 -14.4375 L 34.59375 -14.5 L 12.71875 -19.875 C 10.738281 -20.394531 9.257812 -20.507812 8.28125 -20.21875 C 7.300781 -19.925781 6.59375 -19.601562 6.15625 -19.25 C 6.15625 -19.25 6.304688 -19.71875 6.609375 -20.65625 C 6.910156 -21.601562 7.421875 -22.726562 8.140625 -24.03125 C 8.859375 -25.34375 9.828125 -26.570312 11.046875 -27.71875 C 12.273438 -28.875 13.8125 -29.707031 15.65625 -30.21875 C 17.5 -30.738281 19.6875 -30.660156 22.21875 -29.984375 L 56.015625 -20.75 C 57.992188 -20.257812 59.472656 -20.15625 60.453125 -20.4375 C 61.429688 -20.71875 62.140625 -21.046875 62.578125 -21.421875 C 62.578125 -21.421875 62.375 -21.003906 61.96875 -20.171875 C 61.5625 -19.347656 60.882812 -18.382812 59.9375 -17.28125 C 59 -16.175781 57.753906 -15.140625 56.203125 -14.171875 C 54.648438 -13.203125 52.734375 -12.53125 50.453125 -12.15625 C 48.171875 -11.78125 45.484375 -11.921875 42.390625 -12.578125 L 40.015625 -13.171875 L 37.53125 -10.765625 C 37.4375 -10.671875 37.351562 -10.585938 37.28125 -10.515625 L 60.734375 -10.515625 Z M 33.015625 16.078125 C 32.222656 17.890625 30.960938 19.148438 29.234375 19.859375 C 27.515625 20.578125 25.738281 20.582031 23.90625 19.875 C 22.082031 19.0625 20.8125 17.789062 20.09375 16.0625 C 19.375 14.34375 19.375 12.566406 20.09375 10.734375 C 20.90625 8.910156 22.164062 7.644531 23.875 6.9375 C 25.59375 6.226562 27.382812 6.222656 29.25 6.921875 C 31.0625 7.734375 32.320312 9 33.03125 10.71875 C 33.75 12.445312 33.742188 14.234375 33.015625 16.078125 Z M 33.015625 16.078125 "/></g></g></g><g fill="#8c38fe" fill-opacity="1"><g transform="translate(83.42415, 74.102503)"><g><path d="M 13.59375 -29.84375 C 11.863281 -30.84375 10.742188 -32.238281 10.234375 -34.03125 C 9.722656 -35.820312 9.921875 -37.601562 10.828125 -39.375 C 10.992188 -39.65625 11.171875 -39.925781 11.359375 -40.1875 C 9.703125 -42.539062 9.523438 -45.066406 10.828125 -47.765625 C 11.828125 -49.460938 13.222656 -50.570312 15.015625 -51.09375 C 16.816406 -51.625 18.601562 -51.421875 20.375 -50.484375 C 22.070312 -49.484375 23.175781 -48.085938 23.6875 -46.296875 C 24.195312 -44.503906 24 -42.734375 23.09375 -40.984375 C 22.9375 -40.703125 22.765625 -40.4375 22.578125 -40.1875 C 24.222656 -37.832031 24.394531 -35.300781 23.09375 -32.59375 C 22.09375 -30.875 20.695312 -29.757812 18.90625 -29.25 C 17.113281 -28.738281 15.34375 -28.9375 13.59375 -29.84375 Z M 11.734375 -14.53125 L 11.734375 -23.859375 L 23.96875 -27.21875 L 23.96875 -17.828125 C 23.96875 -14.984375 23.597656 -12.550781 22.859375 -10.53125 C 22.128906 -8.519531 21.191406 -6.835938 20.046875 -5.484375 C 18.910156 -4.128906 17.695312 -3.054688 16.40625 -2.265625 C 15.113281 -1.472656 13.878906 -0.898438 12.703125 -0.546875 C 11.523438 -0.203125 10.550781 -0.0195312 9.78125 0 L 6.015625 -10.484375 C 8.335938 -10.484375 9.867188 -10.726562 10.609375 -11.21875 C 11.359375 -11.707031 11.734375 -12.8125 11.734375 -14.53125 Z M -1.984375 -10.515625 L 6.21875 -10.515625 L 9.8125 0 L 1.78125 0 Z M -1.984375 -10.515625 "/></g></g></g><g fill="#8c38fe" fill-opacity="1"><g transform="translate(105.402268, 74.102503)"><g><path d="M 37.734375 -29.140625 C 41.296875 -25.785156 43.078125 -21.6875 43.078125 -16.84375 C 43.078125 -11.695312 41.203125 -7.421875 37.453125 -4.015625 C 33.679688 -0.585938 28.988281 1.125 23.375 1.125 C 18.601562 1.125 14.539062 -0.191406 11.1875 -2.828125 C 10.269531 -2.203125 9.28125 -1.664062 8.21875 -1.21875 C 8.1875 -1.21875 8.160156 -1.21875 8.140625 -1.21875 C 6.117188 -0.40625 4.023438 0 1.859375 0 L -1.921875 -10.515625 L 5.515625 -10.515625 C 4.910156 -12.265625 4.609375 -14.140625 4.609375 -16.140625 C 4.609375 -21.242188 6.484375 -25.53125 10.234375 -29 C 14.015625 -32.445312 18.707031 -34.171875 24.3125 -34.171875 C 29.675781 -34.171875 34.148438 -32.492188 37.734375 -29.140625 Z M 23.859375 -6.046875 C 25.890625 -6.046875 27.429688 -6.875 28.484375 -8.53125 C 29.503906 -10.175781 30.015625 -12.617188 30.015625 -15.859375 C 30.015625 -19.453125 29.476562 -22.238281 28.40625 -24.21875 C 27.332031 -26.175781 25.796875 -27.15625 23.796875 -27.15625 C 21.796875 -27.15625 20.257812 -26.328125 19.1875 -24.671875 C 18.132812 -23.035156 17.609375 -20.632812 17.609375 -17.46875 C 17.609375 -13.832031 18.15625 -11.023438 19.25 -9.046875 C 20.34375 -7.046875 21.878906 -6.046875 23.859375 -6.046875 Z M 23.859375 -6.046875 "/></g></g></g></g></g></svg>